ply
format ascii 1.0
element vertex 111
comment vertices
property float x
property float y
property float z
end_header
1.13960647583007812 2.60562539100646973 -1.09471726417541504
-0.881278395652770996 1.85479497909545898 -1.14289629459381104
0.107622221112251282 2.79334807395935059 -1.17268574237823486
0.203705489635467529 1.35515975952148438 -1.13057506084442139
0.194887489080429077 2.67862701416015625 -1.17249572277069092
0.213145792484283447 2.86005139350891113 -1.15901684761047363
-0.487939894199371338 2.5352935791015625 -1.17592072486877441
-0.487134367227554321 1.93540358543395996 -1.21767759323120117
0.759010851383209229 3.55880331993103027 -1.10853874683380127
-0.282856851816177368 3.93173742294311523 -1.07097291946411133
0.260298967361450195 2.71186566352844238 -1.15053284168243408
1.11082637310028076 2.64986276626586914 -1.06643009185791016
0.755953192710876465 3.53655314445495605 -1.09467720985412598
-0.0948673263192176819 2.2883610725402832 -1.19849896430969238
0.194335669279098511 1.38795149326324463 -1.1254277229309082
0.0711383074522018433 2.77345657348632812 -1.16477954387664795
-1.09606027603149414 2.48076939582824707 -1.07039713859558105
0.677566170692443848 2.17777347564697266 -1.11421000957489014
0.757755041122436523 2.68173050880432129 -1.13401389122009277
0.0752228796482086182 2.72129154205322266 -1.16057765483856201
-0.231983989477157593 2.09899330139160156 -1.20421850681304932
-0.293828219175338745 2.19697284698486328 -1.17636394500732422
0.671107888221740723 2.18441963195800781 -1.12755823135375977
1.12714016437530518 2.63856101036071777 -1.05627071857452393
-0.0647378265857696533 2.70474743843078613 -1.16120123863220215
1.08361220359802246 2.66529703140258789 -1.06426048278808594
-0.274379104375839233 3.91823458671569824 -1.10997700691223145
-0.40529167652130127 2.09961128234863281 -1.19784188270568848
0.692416071891784668 2.2100527286529541 -1.13184893131256104
0.044846024364233017 2.51744985580444336 -1.16650485992431641
0.240139201283454895 2.94560527801513672 -1.15172815322875977
0.205986574292182922 1.37924671173095703 -1.11114645004272461
1.17365562915802002 2.6215519905090332 -1.07828426361083984
0.747694969177246094 3.5451362133026123 -1.11845195293426514
-1.09788167476654053 2.48808121681213379 -1.1069941520690918
-0.0176338125020265579 2.40255951881408691 -1.1842644214630127
1.09881067276000977 2.66237831115722656 -1.04748320579528809
0.699673950672149658 2.21314334869384766 -1.10658884048461914
-0.291861534118652344 3.91667842864990234 -1.11900317668914795
0.755901813507080078 3.55422687530517578 -1.09623050689697266
0.0955222025513648987 2.94772577285766602 -1.16641438007354736
-1.09980177879333496 2.48758745193481445 -1.12065780162811279
0.751008808612823486 3.53603482246398926 -1.11115479469299316
0.740775406360626221 3.55100321769714355 -1.11491870880126953
0.6344451904296875 2.16341686248779297 -1.0983048677444458
0.0612820945680141449 2.68388581275939941 -1.14623236656188965
0.135031506419181824 2.74576354026794434 -1.17595946788787842
0.138429403305053711 2.81529092788696289 -1.17266786098480225
-0.355065584182739258 2.11929082870483398 -1.17455625534057617
-0.0454983413219451904 2.55886554718017578 -1.16121804714202881
0.676830410957336426 2.17832398414611816 -1.11541867256164551
-0.35498693585395813 1.98798096179962158 -1.19701969623565674
0.679571986198425293 2.18192815780639648 -1.12353026866912842
0.208543002605438232 1.35260617733001709 -1.13885343074798584
-0.215074554085731506 3.39940404891967773 -1.16135513782501221
0.683612167835235596 2.19839024543762207 -1.12699496746063232
0.68348848819732666 2.19829583168029785 -1.12940001487731934
1.11184382438659668 2.64995050430297852 -1.07033443450927734
-0.0857146382331848145 2.08051967620849609 -1.1807633638381958
0.634531259536743164 2.21473789215087891 -1.11847209930419922
-1.10586047172546387 2.47940158843994141 -1.10823822021484375
0.135161936283111572 2.58746147155761719 -1.17308592796325684
-0.12168864905834198 2.4845726490020752 -1.16598892211914062
0.0431804955005645752 2.61401104927062988 -1.17022883892059326
1.08936429023742676 2.72658538818359375 -1.06979513168334961
-0.279368937015533447 3.91594767570495605 -1.09551024436950684
0.688973188400268555 2.18385887145996094 -1.11955797672271729
0.147287264466285706 2.83832883834838867 -1.15909171104431152
-0.275940656661987305 3.92099642753601074 -1.08355951309204102
0.760564208030700684 3.54087615013122559 -1.10108339786529541
-0.444070667028427124 1.98898184299468994 -1.21543443202972412
-0.164755493402481079 2.30499958992004395 -1.18345487117767334
-1.01221227645874023 2.52862071990966797 -1.1218411922454834
-0.306245654821395874 2.13570141792297363 -1.2065575122833252
0.161127984523773193 2.74103021621704102 -1.17758417129516602
1.10641384124755859 2.66720438003540039 -1.09319591522216797
1.14646947383880615 2.63604950904846191 -1.08041667938232422
0.194451361894607544 1.37781202793121338 -1.15283823013305664
1.12304019927978516 2.64049768447875977 -1.05650484561920166
0.666986167430877686 2.65780067443847656 -1.14065170288085938
0.240241438150405884 2.90511274337768555 -1.13007628917694092
1.13260412216186523 2.6377708911895752 -1.06146895885467529
-1.10171282291412354 2.46773886680603027 -1.07228195667266846
-1.09234964847564697 2.49364972114562988 -1.08338212966918945
0.421441555023193359 2.64272856712341309 -1.10902464389801025
-0.304329991340637207 2.10831284523010254 -1.20387732982635498
0.0617506690323352814 2.61855149269104004 -1.1880570650100708
-0.0145796500146389008 2.5104072093963623 -1.17593300342559814
0.0134258866310119629 2.75287055969238281 -1.15758514404296875
0.0877958238124847412 2.75295066833496094 -1.15789055824279785
0.00886250659823417664 3.02173542976379395 -1.16107690334320068
0.211736932396888733 1.37431526184082031 -1.11261427402496338
-0.422394275665283203 1.97717976570129395 -1.21151936054229736
-0.561244606971740723 1.96649503707885742 -1.1544034481048584
1.16475200653076172 2.64357972145080566 -1.07344973087310791
0.115108385682106018 2.73182201385498047 -1.16853427886962891
0.757648348808288574 3.53312182426452637 -1.09642422199249268
0.210793286561965942 1.37565243244171143 -1.12152969837188721
0.054548412561416626 2.85512709617614746 -1.17955303192138672
-0.158314093947410583 2.36101603507995605 -1.17007184028625488
-0.0315783992409706116 2.63959193229675293 -1.15218269824981689
0.113567262887954712 2.55405497550964355 -1.16810047626495361
-1.09699630737304688 2.47726917266845703 -1.1007082462310791
0.685859918594360352 2.17789530754089355 -1.11502265930175781
0.758663356304168701 3.53391861915588379 -1.09736979007720947
-0.162583380937576294 2.31301212310791016 -1.21063697338104248
0.767570018768310547 3.54794168472290039 -1.10217761993408203
0.205243363976478577 1.3566443920135498 -1.13934111595153809
-0.139731287956237793 2.49504899978637695 -1.17179214954376221
0.690275013446807861 2.19177770614624023 -1.11482775211334229
1.1413189172744751 2.60829925537109375 -1.08471167087554932
