ply
format ascii 1.0
element vertex 256
comment vertices
property float x
property float y
property float z
end_header
-0.212469220161437988 1.21551871299743652 -1.08262157440185547
1.13960647583007812 2.60562539100646973 -1.09471726417541504
1.54031646251678467 3.80909848213195801 -0.201232701539993286
-0.881278395652770996 1.85479497909545898 -1.14289629459381104
0.525467097759246826 4.71108198165893555 -0.7880820631980896
0.107622221112251282 2.79334807395935059 -1.17268574237823486
1.06970012187957764 3.65820646286010742 -1.06977188587188721
0.265329062938690186 4.74099826812744141 0.0877296179533004761
0.203705489635467529 1.35515975952148438 -1.13057506084442139
-1.99582064151763916 2.56612443923950195 -1.17061698436737061
0.984579145908355713 4.05455684661865234 -1.08054172992706299
0.194887489080429077 2.67862701416015625 -1.17249572277069092
-1.35077798366546631 3.92333126068115234 -1.12824499607086182
-2.49509716033935547 -0.0988209247589111328 -1.09251737594604492
0.213145792484283447 2.86005139350891113 -1.15901684761047363
-0.607699394226074219 4.44127893447875977 -0.469356894493103027
-0.487939894199371338 2.5352935791015625 -1.17592072486877441
-0.487134367227554321 1.93540358543395996 -1.21767759323120117
1.14663565158843994 3.79509496688842773 -1.05688464641571045
1.93170976638793945 1.98735606670379639 -1.17771315574645996
-0.241189420223236084 3.14865446090698242 -0.820434749126434326
0.439859330654144287 4.62311553955078125 -0.746160387992858887
0.759010851383209229 3.55880331993103027 -1.10853874683380127
-0.282856851816177368 3.93173742294311523 -1.07097291946411133
-1.94916987419128418 2.63131165504455566 -1.18334400653839111
1.72790956497192383 2.92463231086730957 -1.10584092140197754
-1.25768506526947021 2.42769742012023926 -1.14306485652923584
-0.154949992895126343 3.60621929168701172 -1.11573529243469238
0.260298967361450195 2.71186566352844238 -1.15053284168243408
1.11082637310028076 2.64986276626586914 -1.06643009185791016
0.755953192710876465 3.53655314445495605 -1.09467720985412598
-0.0948673263192176819 2.2883610725402832 -1.19849896430969238
-0.498509526252746582 2.93896102905273438 -1.245430588722229
1.04440402984619141 4.62653064727783203 -0.75496363639831543
0.591470241546630859 3.87841224670410156 -1.08784151077270508
0.194335669279098511 1.38795149326324463 -1.1254277229309082
1.08849358558654785 4.06785821914672852 -1.0077061653137207
0.0711383074522018433 2.77345657348632812 -1.16477954387664795
-1.09606027603149414 2.48076939582824707 -1.07039713859558105
-1.73062217235565186 2.96718120574951172 -0.860347270965576172
-2.44596481323242188 1.56320369243621826 -0.794989407062530518
0.677566170692443848 2.17777347564697266 -1.11421000957489014
0.757755041122436523 2.68173050880432129 -1.13401389122009277
-0.832806944847106934 4.4683990478515625 -1.04317688941955566
0.247244358062744141 4.43379735946655273 -0.552778184413909912
-1.15424811840057373 2.30131077766418457 -1.27487468719482422
0.0752228796482086182 2.72129154205322266 -1.16057765483856201
0.145053654909133911 2.84464144706726074 -1.1834712028503418
-0.231983989477157593 2.09899330139160156 -1.20421850681304932
0.605935931205749512 3.78433632850646973 -0.749625563621520996
-0.293828219175338745 2.19697284698486328 -1.17636394500732422
-1.91460895538330078 4.23450517654418945 -0.922643184661865234
0.671107888221740723 2.18441963195800781 -1.12755823135375977
1.12714016437530518 2.63856101036071777 -1.05627071857452393
0.896054506301879883 4.45121288299560547 -0.814208507537841797
-0.0647378265857696533 2.70474743843078613 -1.16120123863220215
-1.74122726917266846 2.57390141487121582 -1.19274365901947021
1.08361220359802246 2.66529703140258789 -1.06426048278808594
-0.274379104375839233 3.91823458671569824 -1.10997700691223145
-0.40529167652130127 2.09961128234863281 -1.19784188270568848
0.738546490669250488 4.54483366012573242 -0.122496306896209717
0.692416071891784668 2.2100527286529541 -1.13184893131256104
-3.21282672882080078 4.01551961898803711 -0.951674342155456543
1.10718357563018799 2.24797844886779785 -1.26513969898223877
1.38672292232513428 4.1484065055847168 -0.0487565398216247559
0.044846024364233017 2.51744985580444336 -1.16650485992431641
-1.14235997200012207 2.84995603561401367 -0.57027125358581543
0.240139201283454895 2.94560527801513672 -1.15172815322875977
0.692911028861999512 3.11972546577453613 -1.13200974464416504
0.205986574292182922 1.37924671173095703 -1.11114645004272461
2.0772550106048584 4.23325538635253906 -1.00347673892974854
-1.10382640361785889 3.80029463768005371 -1.06217122077941895
1.92943620681762695 3.85432887077331543 -0.680712044239044189
1.17365562915802002 2.6215519905090332 -1.07828426361083984
1.02265000343322754 4.06011581420898438 -1.04317998886108398
-1.18021547794342041 1.96100366115570068 -1.10409045219421387
0.747694969177246094 3.5451362133026123 -1.11845195293426514
-1.09788167476654053 2.48808121681213379 -1.1069941520690918
1.01573324203491211 4.25818443298339844 -1.01338410377502441
-0.0176338125020265579 2.40255951881408691 -1.1842644214630127
0.269407391548156738 4.78399467468261719 -0.410567969083786011
-1.07828342914581299 3.88317394256591797 -1.10939252376556396
1.09881067276000977 2.66237831115722656 -1.04748320579528809
-1.27330303192138672 3.09160733222961426 -1.25457966327667236
0.552334368228912354 4.20977163314819336 -1.01962137222290039
0.699673950672149658 2.21314334869384766 -1.10658884048461914
-0.291861534118652344 3.91667842864990234 -1.11900317668914795
0.755901813507080078 3.55422687530517578 -1.09623050689697266
0.80482947826385498 3.86357736587524414 -1.10821354389190674
-1.16722297668457031 4.47228574752807617 -0.840175509452819824
0.0955222025513648987 2.94772577285766602 -1.16641438007354736
0.903012752532958984 4.47924089431762695 -0.771239876747131348
-1.09980177879333496 2.48758745193481445 -1.12065780162811279
1.39422523975372314 0.782278060913085938 -1.02083396911621094
0.0926181375980377197 3.81730461120605469 -1.23083913326263428
0.751008808612823486 3.53603482246398926 -1.11115479469299316
1.8150256872177124 2.45541477203369141 -1.01304817199707031
0.740775406360626221 3.55100321769714355 -1.11491870880126953
0.6344451904296875 2.16341686248779297 -1.0983048677444458
-0.445647537708282471 4.21018552780151367 -0.689081907272338867
-1.5827333927154541 1.79678726196289062 -0.976993143558502197
-1.3633420467376709 3.47903895378112793 -1.12399685382843018
-1.78088057041168213 3.43381381034851074 -0.930014491081237793
0.0612820945680141449 2.68388581275939941 -1.14623236656188965
0.135031506419181824 2.74576354026794434 -1.17595946788787842
-2.41792964935302734 -0.384804964065551758 -1.09963762760162354
0.492242157459259033 2.17176961898803711 -1.1450040340423584
0.138429403305053711 2.81529092788696289 -1.17266786098480225
-0.355065584182739258 2.11929082870483398 -1.17455625534057617
-0.0454983413219451904 2.55886554718017578 -1.16121804714202881
0.676830410957336426 2.17832398414611816 -1.11541867256164551
-0.35498693585395813 1.98798096179962158 -1.19701969623565674
1.05530071258544922 4.21324348449707031 -0.820480763912200928
-0.731529951095581055 2.73385930061340332 -1.22874689102172852
-0.598516702651977539 3.19534397125244141 -1.16357207298278809
-1.57157659530639648 4.19219160079956055 -1.12085843086242676
1.1232532262802124 3.02582669258117676 -1.15849161148071289
-1.85812640190124512 2.55159258842468262 -1.07001650333404541
0.584576666355133057 3.66024231910705566 -1.10553908348083496
-1.64745819568634033 2.72878074645996094 -1.05917620658874512
-0.885373353958129883 4.09270000457763672 -1.05926752090454102
0.679571986198425293 2.18192815780639648 -1.12353026866912842
0.208543002605438232 1.35260617733001709 -1.13885343074798584
-0.215074554085731506 3.39940404891967773 -1.16135513782501221
0.65900123119354248 3.81158661842346191 -0.982561588287353516
-1.11355018615722656 2.90894651412963867 -0.718240976333618164
0.683612167835235596 2.19839024543762207 -1.12699496746063232
0.68348848819732666 2.19829583168029785 -1.12940001487731934
1.11184382438659668 2.64995050430297852 -1.07033443450927734
-0.0857146382331848145 2.08051967620849609 -1.1807633638381958
0.634531259536743164 2.21473789215087891 -1.11847209930419922
1.12073493003845215 3.5970304012298584 -0.965173602104187012
0.427364617586135864 3.48203659057617188 -1.10284709930419922
-1.10586047172546387 2.47940158843994141 -1.10823822021484375
2.16900753974914551 3.22536468505859375 -0.757761478424072266
0.135161936283111572 2.58746147155761719 -1.17308592796325684
-0.0832749605178833008 2.96703219413757324 -0.739941835403442383
-0.12168864905834198 2.4845726490020752 -1.16598892211914062
1.28690123558044434 4.10744094848632812 -1.01389658451080322
-0.132234334945678711 3.14349555969238281 -1.14880084991455078
0.559064745903015137 3.94172143936157227 -0.927507460117340088
0.842601418495178223 4.38185644149780273 -0.197451755404472351
-1.96208250522613525 3.7278139591217041 -0.846697986125946045
0.0431804955005645752 2.61401104927062988 -1.17022883892059326
1.08936429023742676 2.72658538818359375 -1.06979513168334961
-0.279368937015533447 3.91594767570495605 -1.09551024436950684
0.91189044713973999 4.19360637664794922 -0.763630986213684082
2.40907049179077148 2.50174713134765625 -0.873037338256835938
0.213960200548171997 3.76436281204223633 -1.03164923191070557
0.688973188400268555 2.18385887145996094 -1.11955797672271729
0.147287264466285706 2.83832883834838867 -1.15909171104431152
-0.275940656661987305 3.92099642753601074 -1.08355951309204102
0.760564208030700684 3.54087615013122559 -1.10108339786529541
-0.444070667028427124 1.98898184299468994 -1.21543443202972412
-0.164755493402481079 2.30499958992004395 -1.18345487117767334
-0.0330989956855773926 3.66557550430297852 -1.04054415225982666
-1.01221227645874023 2.52862071990966797 -1.1218411922454834
-1.52522587776184082 3.00669717788696289 -0.951557278633117676
-0.306245654821395874 2.13570141792297363 -1.2065575122833252
-1.16101562976837158 2.95653152465820312 -1.25278866291046143
0.161127984523773193 2.74103021621704102 -1.17758417129516602
1.10641384124755859 2.66720438003540039 -1.09319591522216797
1.14646947383880615 2.63604950904846191 -1.08041667938232422
0.807110071182250977 4.85655021667480469 -0.459428310394287109
1.29274332523345947 4.58164644241333008 -0.962412416934967041
-1.09580564498901367 3.44986534118652344 -1.08027470111846924
0.360413670539855957 4.52264499664306641 -0.248665511608123779
0.194451361894607544 1.37781202793121338 -1.15283823013305664
0.70987546443939209 3.70826554298400879 -1.07574987411499023
1.12304019927978516 2.64049768447875977 -1.05650484561920166
0.666986167430877686 2.65780067443847656 -1.14065170288085938
-1.87752366065979004 2.57182598114013672 -1.13787150382995605
-1.12772750854492188 3.83340144157409668 -1.15111315250396729
0.824160933494567871 4.45428323745727539 -0.908894181251525879
0.240241438150405884 2.90511274337768555 -1.13007628917694092
1.13260412216186523 2.6377708911895752 -1.06146895885467529
-0.564135432243347168 2.95247483253479004 -1.20982086658477783
0.809438765048980713 4.17780637741088867 -1.03958725929260254
0.219949424266815186 4.91413021087646484 -0.240808814764022827
-1.10171282291412354 2.46773886680603027 -1.07228195667266846
-2.66127681732177734 1.21088337898254395 -1.01503396034240723
-0.850096583366394043 2.29455375671386719 -1.13034975528717041
-1.75302433967590332 4.06455278396606445 -0.908249258995056152
-1.09234964847564697 2.49364972114562988 -1.08338212966918945
0.421441555023193359 2.64272856712341309 -1.10902464389801025
0.693118155002593994 4.39185523986816406 -0.715417683124542236
-0.488988220691680908 2.82996916770935059 -0.821497917175292969
1.01092219352722168 3.61755228042602539 -1.1338050365447998
1.2026674747467041 4.25804471969604492 -1.02959620952606201
-0.304329991340637207 2.10831284523010254 -1.20387732982635498
0.0617506690323352814 2.61855149269104004 -1.1880570650100708
-0.0145796500146389008 2.5104072093963623 -1.17593300342559814
0.0134258866310119629 2.75287055969238281 -1.15758514404296875
0.0877958238124847412 2.75295066833496094 -1.15789055824279785
-1.55309557914733887 3.52278327941894531 -1.13580513000488281
-0.107279807329177856 4.54776096343994141 -0.61957627534866333
-0.235754027962684631 0.752199888229370117 -1.2744133472442627
0.00886250659823417664 3.02173542976379395 -1.16107690334320068
2.11016654968261719 2.28344202041625977 -0.937595367431640625
0.211736932396888733 1.37431526184082031 -1.11261427402496338
-0.422394275665283203 1.97717976570129395 -1.21151936054229736
-0.561244606971740723 1.96649503707885742 -1.1544034481048584
2.44852256774902344 3.54641890525817871 -1.13735318183898926
0.425824820995330811 4.02871179580688477 -0.97948610782623291
1.16475200653076172 2.64357972145080566 -1.07344973087310791
0.115108385682106018 2.73182201385498047 -1.16853427886962891
-1.35533285140991211 4.39963960647583008 -1.04096758365631104
1.08071041107177734 3.52285861968994141 -0.730211853981018066
-0.589270949363708496 2.09079527854919434 -0.955910801887512207
0.757648348808288574 3.53312182426452637 -1.09642422199249268
0.766107678413391113 2.07498979568481445 -1.276611328125
0.210793286561965942 1.37565243244171143 -1.12152969837188721
2.2980809211730957 3.30908536911010742 -0.881477832794189453
-2.49192547798156738 1.93973052501678467 -0.862008094787597656
2.02741241455078125 3.66718411445617676 -0.791795134544372559
1.65919327735900879 2.10214328765869141 -1.17262828350067139
0.054548412561416626 2.85512709617614746 -1.17955303192138672
-0.869033992290496826 3.63646030426025391 -0.781260669231414795
0.777046382427215576 2.80380439758300781 -1.10732412338256836
-0.158314093947410583 2.36101603507995605 -1.17007184028625488
-1.83070087432861328 2.79299235343933105 -0.551757097244262695
-0.0315783992409706116 2.63959193229675293 -1.15218269824981689
0.773878812789916992 3.8688046932220459 -1.12316405773162842
0.236570745706558228 3.96344804763793945 -0.74727165699005127
-1.72722017765045166 3.83873772621154785 -1.14908218383789062
0.974985122680664062 4.06214427947998047 -1.01466596126556396
-0.901721656322479248 3.27907681465148926 -1.11379885673522949
0.113567262887954712 2.55405497550964355 -1.16810047626495361
-0.543630063533782959 1.75640857219696045 -1.32155501842498779
-0.956715941429138184 3.14503145217895508 -0.46367567777633667
-0.802799105644226074 2.40547394752502441 -1.04070782661437988
-1.09699630737304688 2.47726917266845703 -1.1007082462310791
-1.23056650161743164 2.71050071716308594 -1.24519908428192139
-0.444841295480728149 4.60008525848388672 -0.136563032865524292
-0.891205132007598877 3.6498105525970459 -0.434432655572891235
-1.28569543361663818 1.79512035846710205 -1.11765646934509277
0.685859918594360352 2.17789530754089355 -1.11502265930175781
0.758663356304168701 3.53391861915588379 -1.09736979007720947
1.52382194995880127 3.25357747077941895 -1.12358736991882324
0.365163445472717285 4.62153434753417969 -0.465274423360824585
-0.918557524681091309 4.10690450668334961 -0.746106505393981934
-0.162583380937576294 2.31301212310791016 -1.21063697338104248
-1.40565264225006104 2.91562032699584961 -1.14931786060333252
0.767570018768310547 3.54794168472290039 -1.10217761993408203
-0.801990687847137451 3.8371422290802002 -1.20476508140563965
0.205243363976478577 1.3566443920135498 -1.13934111595153809
0.813586771488189697 4.21210956573486328 -1.04473328590393066
0.760971188545227051 3.97632265090942383 -1.16860175132751465
-0.139731287956237793 2.49504899978637695 -1.17179214954376221
-1.26230084896087646 3.68397283554077148 -1.02258956432342529
2.10196399688720703 2.64421939849853516 -0.609786748886108398
0.690275013446807861 2.19177770614624023 -1.11482775211334229
1.1413189172744751 2.60829925537109375 -1.08471167087554932
1.32422733306884766 2.81931686401367188 -0.960406720638275146
-1.31857657432556152 3.06734275817871094 -1.07018387317657471
-1.1090235710144043 3.23389625549316406 -1.18378210067749023
