ply
format ascii 1.0
element vertex 256
comment vertices
property float x
property float y
property float z
end_header
-1.38855504989624023 3.62389230728149414 -0.446254879236221313
1.17077076435089111 2.47198867797851562 -1.17589080333709717
1.25405216217041016 4.06208229064941406 -0.257191985845565796
-0.667614340782165527 2.01468920707702637 -1.14836013317108154
0.45791289210319519 4.6877903938293457 -0.746264040470123291
0.0557523667812347412 2.84134626388549805 -1.18754839897155762
1.1358180046081543 3.75683116912841797 -1.07177388668060303
0.0445107966661453247 4.99294710159301758 -0.145944774150848389
0.180637061595916748 1.35814762115478516 -1.10201478004455566
-1.47270882129669189 3.3273465633392334 -1.04500329494476318
0.99830317497253418 4.1500697135925293 -1.01125192642211914
0.204695925116539001 2.66991949081420898 -1.19035768508911133
-1.104522705078125 4.16986274719238281 -1.03529763221740723
-2.06230330467224121 2.66876006126403809 -0.65598750114440918
0.27504497766494751 2.89846253395080566 -1.1562645435333252
-0.612329721450805664 4.70891046524047852 -0.462987393140792847
-0.350146859884262085 2.4977877140045166 -1.17125248908996582
-0.449393361806869507 2.01340198516845703 -1.25511574745178223
1.16289353370666504 3.92210888862609863 -0.947446107864379883
1.01058506965637207 3.86720371246337891 -0.553658425807952881
-0.78283989429473877 4.48325061798095703 -0.444846659898757935
0.412380993366241455 4.65887737274169922 -0.694127082824707031
0.72677910327911377 3.33588647842407227 -1.22965049743652344
-0.349204748868942261 3.91691875457763672 -1.05093467235565186
-1.73035609722137451 2.75522589683532715 -1.19229817390441895
1.49829578399658203 3.02230715751647949 -1.1648639440536499
-1.32103502750396729 3.58472204208374023 -0.901506245136260986
-0.555760979652404785 4.29903984069824219 -0.976615786552429199
0.332711517810821533 2.70939254760742188 -1.21011853218078613
1.09832334518432617 2.62330508232116699 -1.07208013534545898
0.758483231067657471 3.54716968536376953 -1.12106847763061523
-0.0715478360652923584 2.30569887161254883 -1.21529030799865723
-1.02526175975799561 3.78544211387634277 -1.08426129817962646
0.692457139492034912 4.67713832855224609 -0.623036086559295654
0.518913686275482178 4.23921108245849609 -0.785623133182525635
0.196880504488945007 1.47320103645324707 -1.1360774040222168
1.06816577911376953 4.16895627975463867 -0.886817514896392822
0.0282443761825561523 2.83753824234008789 -1.16740763187408447
-1.10148334503173828 2.49989175796508789 -1.04871511459350586
-1.24719321727752686 4.2974395751953125 -0.559425890445709229
-1.89880192279815674 3.08769512176513672 -0.449637532234191895
0.68305438756942749 2.20876097679138184 -1.08486723899841309
0.721030354499816895 2.71456646919250488 -1.16463780403137207
-0.676182746887207031 4.45228385925292969 -0.957046449184417725
-0.0538369119167327881 4.75450658798217773 -0.470285505056381226
-1.2214353084564209 3.07896280288696289 -1.20899271965026855
0.048102252185344696 2.74533486366271973 -1.12574493885040283
0.404367536306381226 4.15962886810302734 -0.799754142761230469
-0.18363112211227417 2.08322882652282715 -1.23712062835693359
0.358758300542831421 4.43525934219360352 -0.482710003852844238
-0.31928369402885437 2.21777486801147461 -1.15867424011230469
-1.28344368934631348 4.57904672622680664 -0.71048891544342041
0.672201454639434814 2.22191452980041504 -1.11792516708374023
1.14960432052612305 2.65294623374938965 -1.03992843627929688
0.61169666051864624 4.59248590469360352 -0.658672571182250977
-0.148692458868026733 2.743865966796875 -1.1746056079864502
-1.42600810527801514 3.43040966987609863 -1.04956459999084473
0.892756164073944092 2.58523941040039062 -1.10753393173217773
-0.275083839893341064 3.8987281322479248 -1.14411187171936035
-0.385515868663787842 2.14898967742919922 -1.21997678279876709
0.595719099044799805 4.82681751251220703 -0.163246303796768188
0.662116885185241699 2.11020588874816895 -1.17831850051879883
-1.70132243633270264 4.20688438415527344 -0.634759366512298584
0.756578147411346436 3.86194086074829102 -0.744434118270874023
1.24978375434875488 4.23507833480834961 -0.162244468927383423
0.0344313532114028931 2.51322841644287109 -1.19414365291595459
-1.21315634250640869 4.13946962356567383 -0.373278290033340454
0.277800530195236206 3.01763176918029785 -1.11865758895874023
0.508441329002380371 4.0848240852355957 -0.744186222553253174
0.215549975633621216 1.43511033058166504 -1.08226859569549561
1.36120975017547607 4.35483980178833008 -0.952872574329376221
-0.971363544464111328 4.22612237930297852 -0.898541152477264404
0.833807885646820068 4.68405771255493164 -0.453162401914596558
1.26668310165405273 2.64695167541503906 -1.11803877353668213
1.03812432289123535 4.12972354888916016 -0.951789259910583496
-1.23887693881988525 3.47070121765136719 -0.676401317119598389
1.01031398773193359 3.46161055564880371 -1.14008462429046631
-1.0898510217666626 2.51130342483520508 -1.11996746063232422
0.97573477029800415 4.41127777099609375 -0.935563802719116211
-0.0134902819991111755 2.38701653480529785 -1.22609055042266846
0.478323936462402344 4.87620878219604492 -0.511660337448120117
-1.04388344287872314 4.00610589981079102 -1.04140615463256836
1.05836176872253418 2.70619344711303711 -1.05005025863647461
-1.2364351749420166 3.3443140983581543 -1.19706046581268311
0.514410734176635742 4.34403419494628906 -0.84249722957611084
0.883183658123016357 2.38117647171020508 -1.13764095306396484
-0.361985325813293457 3.86989760398864746 -1.18055713176727295
0.763406872749328613 3.46172094345092773 -1.1091538667678833
0.831828892230987549 4.03247690200805664 -0.970807909965515137
-1.11626124382019043 4.6793060302734375 -0.6071510910987854
0.0295649170875549316 2.99637389183044434 -1.16958200931549072
0.617259204387664795 4.65226173400878906 -0.614335238933563232
-1.11215710639953613 2.46239042282104492 -1.13755440711975098
1.05350589752197266 3.56133127212524414 -0.494835257530212402
0.404813885688781738 4.25416183471679688 -1.01542901992797852
0.614004373550415039 3.34573268890380859 -1.14592432975769043
1.02432942390441895 3.95502400398254395 -0.51799696683883667
0.822811007499694824 3.6822972297668457 -1.06784605979919434
0.41794314980506897 2.05666327476501465 -1.12136745452880859
-0.246548086404800415 4.76913928985595703 -0.535993874073028564
-1.52467501163482666 3.67285299301147461 -0.503837764263153076
-1.28970742225646973 3.70184469223022461 -1.01726603507995605
-1.2892688512802124 4.3023219108581543 -0.659086227416992188
0.0250444412231445312 2.70045876502990723 -1.16329109668731689
0.11669217050075531 2.7683563232421875 -1.17879557609558105
-2.02777838706970215 2.6701359748840332 -0.568726778030395508
0.036580994725227356 4.36785554885864258 -0.513110220432281494
0.105215668678283691 2.86471366882324219 -1.16762936115264893
-0.305824160575866699 2.16723251342773438 -1.17969059944152832
-0.139851212501525879 2.59884405136108398 -1.18207800388336182
0.683487951755523682 2.2122504711151123 -1.08813643455505371
-0.290250122547149658 2.04717540740966797 -1.22601103782653809
0.741088151931762695 4.55138921737670898 -0.623462319374084473
-1.07930350303649902 3.19487929344177246 -1.05472493171691895
-0.771544814109802246 4.13903331756591797 -0.966983318328857422
-1.29120409488677979 4.17911100387573242 -1.10495960712432861
0.656838059425354004 4.14650154113769531 -0.685094058513641357
-1.6410369873046875 2.77955102920532227 -0.978122234344482422
0.586577296257019043 4.09084892272949219 -0.838323712348937988
-1.15417444705963135 4.2670140266418457 -0.728705525398254395
-0.873647093772888184 4.29954242706298828 -0.942114889621734619
0.696415364742279053 2.21393752098083496 -1.11166620254516602
0.218798652291297913 1.3845522403717041 -1.12874865531921387
-0.133690387010574341 3.3615715503692627 -1.13670504093170166
0.543418526649475098 4.30852508544921875 -0.637814998626708984
-1.13797259330749512 4.11645174026489258 -0.474486768245697021
0.671932458877563477 2.1782538890838623 -1.1421198844909668
0.64706730842590332 2.22610569000244141 -1.14839589595794678
1.09563744068145752 2.60927152633666992 -1.08172059059143066
-0.0423846021294593811 2.06365728378295898 -1.19787287712097168
0.47245323657989502 2.35211825370788574 -1.16982150077819824
0.745525181293487549 4.25507783889770508 -0.66921764612197876
0.486142665147781372 4.17756366729736328 -0.733073592185974121
-1.01742339134216309 2.4053645133972168 -1.10723745822906494
0.829930007457733154 4.61985349655151367 -0.429282635450363159
0.171855449676513672 2.59690093994140625 -1.17462158203125
-0.642376363277435303 4.48211479187011719 -0.323365718126296997
-0.185325786471366882 2.53803920745849609 -1.15886592864990234
1.18458819389343262 4.22544240951538086 -0.861277997493743896
0.354847848415374756 4.04164695739746094 -0.776812851428985596
0.424052536487579346 4.37886285781860352 -0.631219387054443359
0.755794107913970947 4.72026348114013672 -0.174184143543243408
-1.2932121753692627 4.52894067764282227 -0.474298685789108276
0.00807556509971618652 2.67113041877746582 -1.1734764575958252
0.947344303131103516 2.91850185394287109 -1.15861678123474121
-0.318187057971954346 3.92286372184753418 -1.1264876127243042
0.69745326042175293 4.62123918533325195 -0.54142230749130249
1.31731438636779785 3.92357826232910156 -0.533896505832672119
0.362696349620819092 4.32388114929199219 -0.757138490676879883
0.691425502300262451 2.1248781681060791 -1.10956060886383057
0.126958250999450684 2.89138245582580566 -1.13970756530761719
-0.302827566862106323 3.90441179275512695 -1.08043026924133301
0.749177873134613037 3.6033477783203125 -1.11545932292938232
-0.412530690431594849 2.05664825439453125 -1.25201606750488281
-0.176114201545715332 2.35221290588378906 -1.15857946872711182
0.119725227355957031 4.52460813522338867 -0.68518298864364624
-0.793663620948791504 2.57370209693908691 -1.15034389495849609
-1.38239014148712158 3.71486282348632812 -0.69311976432800293
-0.264266997575759888 2.16598200798034668 -1.22598838806152344
-1.16529834270477295 3.23362827301025391 -1.23191225528717041
0.178633973002433777 2.74341297149658203 -1.20083212852478027
1.05784773826599121 2.6455228328704834 -1.16593122482299805
1.18976676464080811 2.61542606353759766 -1.10545825958251953
0.705448269844055176 4.83569192886352539 -0.383495330810546875
1.15243780612945557 4.45734310150146484 -0.925345063209533691
-1.16285943984985352 3.78649377822875977 -0.860145926475524902
0.2730293869972229 4.77530193328857422 -0.347112685441970825
0.128361493349075317 1.34822297096252441 -1.15548968315124512
0.699197888374328613 4.04156351089477539 -0.848281741142272949
1.13782107830047607 2.6481175422668457 -1.04168546199798584
0.618177652359008789 2.67431902885437012 -1.14943826198577881
-1.45058691501617432 3.59876275062561035 -0.919021308422088623
-0.976308882236480713 4.16532087326049805 -1.12912225723266602
0.636610627174377441 4.60281229019165039 -0.773998677730560303
0.286854922771453857 2.9856569766998291 -1.08162617683410645
1.15966403484344482 2.63755416870117188 -1.05359089374542236
-1.01783323287963867 3.78031539916992188 -1.0047450065612793
0.731683313846588135 4.36114406585693359 -0.810575604438781738
0.023234635591506958 5.03828144073486328 -0.363396584987640381
-1.06352102756500244 2.51838850975036621 -1.05637824535369873
-1.99893128871917725 2.85792160034179688 -0.610171079635620117
-0.970225095748901367 4.11622714996337891 -0.726974129676818848
-1.23161172866821289 4.5707392692565918 -0.619260549545288086
-1.05375325679779053 2.41835165023803711 -1.06201779842376709
0.47226184606552124 2.62590527534484863 -1.13656628131866455
0.670253574848175049 4.6390385627746582 -0.505491256713867188
-0.95922553539276123 4.25872373580932617 -0.473425000905990601
1.10230135917663574 3.60190057754516602 -1.14210605621337891
1.12762904167175293 4.37323093414306641 -0.921486914157867432
-0.242934733629226685 2.13159608840942383 -1.22944259643554688
0.0556812621653079987 2.659027099609375 -1.20989346504211426
-0.043361276388168335 2.51290106773376465 -1.2240440845489502
-0.0487790405750274658 2.80284833908081055 -1.15983927249908447
0.0426955968141555786 2.80908942222595215 -1.16203105449676514
-1.36453366279602051 3.68754124641418457 -1.01951968669891357
0.0410827547311782837 4.70975112915039062 -0.616566598415374756
0.0807575136423110962 3.82023096084594727 -0.728608429431915283
-0.0325535312294960022 3.08668231964111328 -1.14121603965759277
1.14761877059936523 3.83072590827941895 -0.467837989330291748
0.230888679623603821 1.42945623397827148 -1.08620429039001465
-0.39107397198677063 2.03871846199035645 -1.24629759788513184
-0.51497185230255127 2.04043889045715332 -1.15718269348144531
1.45731592178344727 4.13996744155883789 -1.00405704975128174
0.399269580841064453 4.35824394226074219 -0.754201710224151611
1.31037437915802002 2.78683328628540039 -1.13847756385803223
0.108496963977813721 2.75452065467834473 -1.15263104438781738
-1.17327630519866943 4.39081192016601562 -0.934247851371765137
0.701338708400726318 4.32065057754516602 -0.381770104169845581
-1.30050647258758545 3.79854083061218262 -0.506250619888305664
0.751688003540039062 3.55415463447570801 -1.1163794994354248
0.530984938144683838 3.84353303909301758 -0.813792884349822998
0.234258249402046204 1.44283032417297363 -1.11381340026855469
0.822687983512878418 4.58958292007446289 -0.519548535346984863
-1.90745639801025391 3.32539558410644531 -0.555407702922821045
0.79066622257232666 4.64195489883422852 -0.4640769362449646
0.881430208683013916 4.06930732727050781 -0.550655841827392578
-0.0141688883304595947 2.91961193084716797 -1.19034433364868164
-1.03208386898040771 4.44556713104248047 -0.568353891372680664
0.873108744621276855 3.85132884979248047 -0.781598985195159912
-0.183466881513595581 2.38637876510620117 -1.18026864528656006
-1.68073010444641113 3.56776332855224609 -0.402992933988571167
-0.0971597954630851746 2.66896653175354004 -1.16596364974975586
0.802737116813659668 4.03133773803710938 -1.01058506965637207
-0.0600039660930633545 4.65640878677368164 -0.581795632839202881
-1.33662378787994385 3.98615479469299316 -1.10080099105834961
0.993154287338256836 4.14570140838623047 -0.902797698974609375
-0.96940314769744873 3.98720598220825195 -0.864804446697235107
0.164547473192214966 2.5483863353729248 -1.19526767730712891
-1.14770877361297607 2.9707484245300293 -1.17176473140716553
-1.14498937129974365 4.16731357574462891 -0.312172889709472656
-1.06600475311279297 4.23838615417480469 -0.604089736938476562
-1.06781113147735596 2.47612643241882324 -1.1082310676574707
-1.19352877140045166 3.18364286422729492 -1.18590450286865234
-0.609131872653961182 4.88496255874633789 -0.248281210660934448
-1.06863605976104736 4.38097810745239258 -0.335448473691940308
-1.41939020156860352 2.89071774482727051 -0.998652338981628418
0.713721811771392822 2.23368287086486816 -1.09318161010742188
0.751315832138061523 3.57580184936523438 -1.13066983222961426
1.42315757274627686 3.23525285720825195 -1.1660391092300415
0.453045308589935303 4.70790815353393555 -0.500984489917755127
-0.991443753242492676 4.64263010025024414 -0.660368502140045166
-0.173118382692337036 2.3475499153137207 -1.22675609588623047
-1.32542550563812256 3.50154423713684082 -0.958911895751953125
0.709383547306060791 3.47321414947509766 -1.1193842887878418
-0.253771960735321045 4.65833663940429688 -0.871050655841827393
0.208649560809135437 1.39113497734069824 -1.13284575939178467
0.777536988258361816 4.35884571075439453 -0.934067070484161377
0.706201076507568359 4.20042324066162109 -1.00994348526000977
-0.213026553392410278 2.55553841590881348 -1.16749131679534912
-1.11152148246765137 4.33913230895996094 -0.819192647933959961
1.25982439517974854 3.85127472877502441 -0.31199270486831665
0.62565690279006958 2.22722053527832031 -1.0967864990234375
1.19224965572357178 2.53321957588195801 -1.13615524768829346
0.601481080055236816 4.33047389984130859 -0.486744999885559082
-1.07644283771514893 4.29994106292724609 -0.730647921562194824
-1.0199202299118042 3.90738987922668457 -1.14502239227294922
