ply
format ascii 1.0
element vertex 256
comment vertices
property float x
property float y
property float z
end_header
1.04886043071746826 -4.02103328704833984 0.707804977893829346
-1.27699041366577148 4.44495153427124023 0.649755597114562988
-1.94553613662719727 -0.705571234226226807 0.780931651592254639
1.30093657970428467 2.49208593368530273 0.725072085857391357
1.65173530578613281 -1.71156680583953857 0.766305208206176758
-2.27975773811340332 0.695608735084533691 0.733142554759979248
-0.0853035598993301392 3.40696620941162109 0.724322259426116943
-1.26102530956268311 -2.82566475868225098 0.671695947647094727
0.723701179027557373 2.34016990661621094 0.558363676071166992
0.528307974338531494 -0.27908855676651001 0.575318634510040283
0.386256933212280273 -3.7009427547454834 0.68366396427154541
0.930569648742675781 -1.90581941604614258 0.34389159083366394
-2.40857815742492676 -2.35916376113891602 0.471823930740356445
-1.56100213527679443 2.88506960868835449 0.540628552436828613
-1.47328400611877441 0.815322697162628174 0.442180752754211426
-1.11157834529876709 -1.09019994735717773 0.985195815563201904
2.43535304069519043 -3.09735465049743652 0.8960990309715271
-1.43313205242156982 -1.94574391841888428 0.577346384525299072
1.08710741996765137 -1.14107906818389893 0.630168020725250244
0.734840631484985352 2.40648674964904785 0.496831923723220825
-1.08428716659545898 1.5959622859954834 0.535756409168243408
1.67029702663421631 2.90326738357543945 0.777466297149658203
0.546478331089019775 -1.48188459873199463 0.573737084865570068
1.03740274906158447 -4.05582952499389648 0.6408424973487854
-0.757745623588562012 0.848427772521972656 0.576997101306915283
-1.53250753879547119 2.24628853797912598 0.707700371742248535
-2.02866053581237793 -2.04117798805236816 0.557578027248382568
1.60078787803649902 -1.78416728973388672 0.680413603782653809
1.89463484287261963 1.83140981197357178 1.17757916450500488
-0.778468668460845947 -1.79901742935180664 0.488490939140319824
0.735663890838623047 2.74986505508422852 0.600926995277404785
-1.12269294261932373 2.44139361381530762 0.639044284820556641
0.718823611736297607 -4.72680521011352539 0.833032369613647461
-1.16182315349578857 -1.68999505043029785 0.645727694034576416
0.981289029121398926 1.03899300098419189 0.636643052101135254
0.839564979076385498 -1.00604510307312012 0.44684600830078125
1.9183964729309082 -3.72172188758850098 0.973563194274902344
0.388283967971801758 -1.07476818561553955 0.382144451141357422
-1.44231462478637695 0.817782878875732422 0.513577520847320557
0.0471354089677333832 2.61572480201721191 0.688448488712310791
0.940703094005584717 -0.218682914972305298 0.61459726095199585
-1.26386713981628418 -2.91885972023010254 0.623662829399108887
-2.2959134578704834 2.7040717601776123 0.703595280647277832
1.48787140846252441 1.93685448169708252 0.717017769813537598
0.522687792778015137 2.41598010063171387 0.544474601745605469
0.318272411823272705 -3.38815832138061523 0.636754512786865234
-1.76540374755859375 4.06798601150512695 0.895802080631256104
-1.47255420684814453 2.80351758003234863 0.631412088871002197
0.785758137702941895 -2.29709434509277344 0.419659525156021118
-1.63619363307952881 -1.90947294235229492 0.604589760303497314
-1.52293086051940918 2.27582693099975586 0.678349494934082031
-0.926490843296051025 4.36650991439819336 0.820006072521209717
0.0696495473384857178 2.49893999099731445 0.62555462121963501
-1.51149749755859375 0.798307120800018311 0.465653687715530396
-1.46951866149902344 3.36334848403930664 0.672259390354156494
0.230803430080413818 -2.27130866050720215 0.558209002017974854
0.71916121244430542 -2.82805323600769043 0.559828817844390869
0.741729557514190674 2.43721556663513184 0.539357244968414307
0.307435393333435059 -1.12667953968048096 0.491839826107025146
-0.730850517749786377 -1.41147613525390625 0.754827439785003662
0.736518979072570801 2.37800192832946777 0.533732593059539795
0.160262748599052429 -0.361231207847595215 0.583634138107299805
-0.0408718585968017578 3.59342288970947266 0.760842621326446533
1.79370176792144775 -1.43864333629608154 0.934801101684570312
-0.755174338817596436 0.829642772674560547 0.556654214859008789
1.61725139617919922 -0.709589540958404541 0.636376917362213135
-1.54211592674255371 1.40734016895294189 0.642667651176452637
1.12771427631378174 -1.38714683055877686 0.426199734210968018
1.54342174530029297 -1.71499252319335938 0.683716773986816406
-2.35723352432250977 -1.54684042930603027 0.52052462100982666
0.654731810092926025 3.01206135749816895 0.570497035980224609
0.0411791503429412842 1.95635509490966797 0.654553055763244629
0.937232494354248047 -0.716220617294311523 0.442745029926300049
1.48591303825378418 1.93492090702056885 0.69532245397567749
-1.5386425256729126 2.86887311935424805 0.563209891319274902
1.07532024383544922 -1.44989693164825439 0.361479580402374268
-0.755296111106872559 0.831731915473937988 0.580632984638214111
-1.50169289112091064 -1.73940730094909668 0.613107144832611084
1.26728034019470215 2.50916600227355957 0.757855534553527832
-1.47954893112182617 0.81453394889831543 0.439518004655838013
1.38587749004364014 -0.497071236371994019 0.575554847717285156
-1.20835888385772705 -1.21881294250488281 0.69239729642868042
0.971362590789794922 1.03320431709289551 0.655523955821990967
-0.408571541309356689 2.84766793251037598 0.628824830055236816
0.753123760223388672 2.73567867279052734 0.585517466068267822
-1.47557294368743896 0.816447436809539795 0.439497798681259155
-1.53736233711242676 2.8816678524017334 0.562505125999450684
-0.92909395694732666 4.01645612716674805 0.708185136318206787
-2.24290966987609863 2.70823168754577637 0.769709229469299316
2.06845641136169434 -2.31316208839416504 0.835658907890319824
1.15739786624908447 2.04946231842041016 0.59821850061416626
-1.5934213399887085 -1.92475306987762451 0.609755933284759521
0.00211965851485729218 3.19295334815979004 0.728266119956970215
-1.38259255886077881 1.92133736610412598 0.74939495325088501
0.207901164889335632 -0.665884435176849365 0.403465092182159424
1.61584556102752686 -1.79621648788452148 0.73039621114730835
1.49199414253234863 1.93496584892272949 0.714208781719207764
-1.70626151561737061 -1.95757102966308594 0.625588536262512207
1.68953323364257812 -2.81827211380004883 0.742185354232788086
0.0251310877501964569 0.35713958740234375 0.645891904830932617
1.04203402996063232 -2.37085485458374023 0.489800602197647095
-0.712326109409332275 2.06700444221496582 0.682617783546447754
1.97082078456878662 -3.10031294822692871 1.03923845291137695
-1.36991250514984131 -0.877518117427825928 0.5955924391746521
1.01544606685638428 -4.03532886505126953 0.614302456378936768
1.53209662437438965 -2.41252279281616211 0.60891425609588623
-1.41208779811859131 1.86817896366119385 0.624708056449890137
0.65324169397354126 2.73400640487670898 0.604124009609222412
1.61269068717956543 -0.716408312320709229 0.633904099464416504
-0.485583990812301636 -2.16146636009216309 0.595937132835388184
0.8892020583152771 -2.25520610809326172 0.509166598320007324
-2.28166842460632324 0.70559614896774292 0.739155769348144531
-1.54312801361083984 2.88486027717590332 0.554686367511749268
0.821755766868591309 3.31795144081115723 0.53331524133682251
-1.53706157207489014 1.41058957576751709 0.638754367828369141
0.54336702823638916 -1.48362338542938232 0.576890230178833008
0.946870684623718262 -3.28427267074584961 0.693870902061462402
-1.5599668025970459 0.837184607982635498 0.499326765537261963
-0.827824592590332031 2.8405306339263916 0.72814786434173584
0.698786437511444092 2.45626354217529297 0.513444185256958008
0.221726194024085999 -2.27441120147705078 0.561305999755859375
1.29032731056213379 -4.01066303253173828 0.584833979606628418
-1.52204310894012451 2.27732443809509277 0.676466703414916992
0.743168056011199951 2.46169543266296387 0.492863923311233521
0.525891661643981934 2.76537442207336426 0.538329362869262695
0.9440193772315979 -0.722988486289978027 0.451459974050521851
0.954057931900024414 -0.749569058418273926 0.432496935129165649
1.51585495471954346 -4.53905344009399414 0.748476564884185791
-1.55823016166687012 1.39080655574798584 0.650210082530975342
-1.25981462001800537 -2.31205177307128906 0.456461846828460693
1.28499507904052734 3.03899121284484863 0.758724391460418701
2.45905542373657227 -2.78131675720214844 0.622960805892944336
0.940978527069091797 -0.721953392028808594 0.448788821697235107
1.03409481048583984 -3.96918916702270508 0.61227726936340332
0.94689410924911499 -0.735607445240020752 0.44443395733833313
-1.25641119480133057 -2.8383781909942627 0.648544490337371826
1.28337597846984863 3.03214097023010254 0.746027946472167969
0.474115639925003052 -0.725816786289215088 0.371774464845657349
0.718856275081634521 2.41689133644104004 0.508140146732330322
-2.65632963180541992 -1.76930832862854004 0.342397749423980713
0.530978500843048096 -4.16568231582641602 0.834766864776611328
-1.54535913467407227 2.8705754280090332 0.561049938201904297
0.681924998760223389 2.97029757499694824 0.540024518966674805
1.83086240291595459 1.74629175662994385 1.06425344944000244
0.707531273365020752 2.567535400390625 0.510180532932281494
-0.768485784530639648 0.843493223190307617 0.591065168380737305
-1.18018174171447754 3.08118033409118652 0.744838893413543701
0.874791383743286133 -1.66831326484680176 0.565454304218292236
0.163356885313987732 -0.364599436521530151 0.581107556819915771
-1.7390906810760498 0.861728191375732422 0.547554910182952881
0.971592962741851807 1.0343550443649292 0.65574193000793457
-0.750921964645385742 0.834585011005401611 0.587278902530670166
0.717029929161071777 -2.79785060882568359 0.554814517498016357
2.42218852043151855 -3.3191382884979248 0.866752922534942627
-1.12811601161956787 3.22765374183654785 0.688324272632598877
0.523609638214111328 -1.48894643783569336 0.560436248779296875
-0.0466976463794708252 3.18273115158081055 0.735132098197937012
-1.7413560152053833 4.08643054962158203 0.882004797458648682
0.627649426460266113 2.36595320701599121 0.509301483631134033
0.0233787763863801956 1.96229135990142822 0.659907639026641846
-1.25169491767883301 -2.77656984329223633 0.721418380737304688
0.781594991683959961 -2.30484461784362793 0.419720172882080078
-2.76227235794067383 -1.22676074504852295 0.653077185153961182
0.010959722101688385 3.09926772117614746 0.71056056022644043
-1.83833146095275879 2.46016311645507812 0.695107400417327881
-1.49166083335876465 0.821469724178314209 0.441849619150161743
-1.26425778865814209 3.55205845832824707 0.643771588802337646
-0.0086689535528421402 -3.15458202362060547 0.715894460678100586
-1.5383838415145874 0.917049050331115723 0.551479041576385498
-1.40479540824890137 -2.00667929649353027 0.59742969274520874
0.763332724571228027 -2.30948233604431152 0.440148055553436279
-0.8280029296875 -0.217613726854324341 0.598513543605804443
-1.68370342254638672 -1.88563442230224609 0.640353858470916748
-1.48755419254302979 0.819323122501373291 0.440193414688110352
-0.916912257671356201 4.35951089859008789 0.825326919555664062
-1.78389990329742432 -1.92750895023345947 0.623491406440734863
-1.68820083141326904 0.940765082836151123 0.560240387916564941
-2.24306511878967285 2.70534706115722656 0.774100899696350098
0.0514595434069633484 2.55533599853515625 0.689350306987762451
-0.384783804416656494 -1.42877388000488281 0.607151210308074951
1.15946352481842041 1.9687347412109375 0.585997700691223145
0.880296230316162109 -3.38975834846496582 0.593059539794921875
-2.28285121917724609 0.706153154373168945 0.737924098968505859
-1.53794121742248535 2.88650894165039062 0.550064027309417725
0.0407881066203117371 1.95698225498199463 0.662047624588012695
0.0199415981769561768 1.96384906768798828 0.6632881760597229
-0.752736449241638184 0.834484755992889404 0.580455899238586426
1.54051804542541504 -2.37602472305297852 0.618014693260192871
0.699921250343322754 2.5697321891784668 0.552573323249816895
-1.71818208694458008 3.35727787017822266 0.708301663398742676
-1.31671333312988281 1.02579593658447266 0.443538278341293335
-1.72459840774536133 -1.94669318199157715 0.629666328430175781
-1.40389740467071533 0.851177573204040527 0.494783192873001099
-0.845166981220245361 -2.29851055145263672 0.554001867771148682
0.938199877738952637 -0.217527806758880615 0.615278184413909912
0.970834672451019287 1.03631508350372314 0.658697247505187988
-1.03246450424194336 4.28009843826293945 0.705908060073852539
0.776394546031951904 -2.2987058162689209 0.418693333864212036
-1.20205354690551758 -1.9359898567199707 0.648064553737640381
1.52059686183929443 -1.10653424263000488 0.618155598640441895
-1.53454113006591797 -2.02583432197570801 0.61414182186126709
-0.0517806187272071838 3.55934429168701172 0.783245325088500977
-1.6462632417678833 -1.86176443099975586 0.577946603298187256
1.24881899356842041 -2.11712455749511719 0.687061131000518799
0.774280071258544922 -2.28258013725280762 0.418916434049606323
-1.46798014640808105 -1.81978785991668701 0.678194999694824219
0.772059023380279541 -1.36625432968139648 0.400283664464950562
0.0880916565656661987 1.46733665466308594 0.579982876777648926
0.816848516464233398 -1.50008976459503174 0.32174798846244812
-2.35574483871459961 -1.45568108558654785 0.39031064510345459
1.49344706535339355 -1.234183669090271 0.641781926155090332
-1.51545870304107666 2.26861166954040527 0.681754887104034424
0.33779868483543396 2.91257238388061523 0.562360644340515137
-1.57563197612762451 2.48441100120544434 0.677000880241394043
0.00985763967037200928 2.64983534812927246 0.682559490203857422
0.940608799457550049 -0.728070378303527832 0.449188470840454102
0.771488845348358154 2.61093401908874512 0.588565528392791748
0.156603753566741943 -0.368895798921585083 0.573686718940734863
-1.39373993873596191 -1.90627932548522949 0.634923100471496582
0.767231583595275879 -2.29208779335021973 0.420174360275268555
-1.5593489408493042 2.89227104187011719 0.553261816501617432
0.103877469897270203 -1.94709527492523193 0.494863510131835938
-1.5146172046661377 0.816132187843322754 0.442949235439300537
-2.25593757629394531 2.70384407043457031 0.773862183094024658
-0.812764883041381836 2.81446003913879395 0.670310616493225098
1.58366382122039795 -0.858940958976745605 0.629556000232696533
1.52737987041473389 -2.40904617309570312 0.611954092979431152
-0.569098591804504395 1.19453632831573486 0.617473900318145752
0.769395172595977783 -2.25772523880004883 0.422843039035797119
1.26277124881744385 3.02042579650878906 0.686904311180114746
1.26738429069519043 2.50865316390991211 0.757315516471862793
-1.51090359687805176 2.28177547454833984 0.690043866634368896
1.58463203907012939 -1.78085899353027344 0.669575214385986328
-1.54969668388366699 2.88731122016906738 0.545166611671447754
-0.705570518970489502 0.476129084825515747 0.609331965446472168
0.32158207893371582 3.1888735294342041 0.689005732536315918
-1.53292858600616455 1.40888667106628418 0.640623033046722412
0.225394800305366516 -2.27460551261901855 0.562214851379394531
0.935325324535369873 -0.237443029880523682 0.575532317161560059
1.72558224201202393 3.06766915321350098 0.697712481021881104
0.777472257614135742 -0.902538776397705078 0.399523466825485229
1.48534643650054932 1.93848907947540283 0.714847922325134277
-1.77273893356323242 4.07134866714477539 0.886363983154296875
0.535085797309875488 -1.48344850540161133 0.574595987796783447
-0.835265040397644043 2.84555554389953613 0.723649501800537109
0.714770138263702393 -2.81306290626525879 0.565127789974212646
0.724813997745513916 2.44269490242004395 0.515588521957397461
0.524918198585510254 -4.16935491561889648 0.840936243534088135
-1.55317914485931396 2.88471698760986328 0.546249091625213623
0.728382349014282227 2.38921308517456055 0.533628344535827637
1.68329024314880371 -1.83090651035308838 0.755305767059326172
0.718458890914916992 2.40928149223327637 0.510627985000610352
0.948794424533843994 -3.65197944641113281 0.693852066993713379
-1.07478606700897217 0.401558369398117065 0.69593656063079834
-1.24135386943817139 -2.83308863639831543 0.635785400867462158
-1.46638941764831543 0.812490940093994141 0.490445137023925781
