ply
format ascii 1.0
element vertex 256
comment vertices
property float x
property float y
property float z
end_header
1.26881611347198486 -4.14178037643432617 0.69518667459487915
-1.29422855377197266 4.41951656341552734 0.682237386703491211
-1.96151387691497803 -0.710241973400115967 0.757061779499053955
1.42892396450042725 2.65773630142211914 0.640897512435913086
1.75840985774993896 -1.60875928401947021 0.780972123146057129
-2.26269412040710449 0.780946493148803711 0.780069351196289062
-0.271884322166442871 3.40956282615661621 0.560860276222229004
-1.33542799949645996 -2.8256075382232666 0.715023219585418701
0.745137214660644531 2.13862061500549316 0.57151561975479126
0.525735974311828613 -0.272527754306793213 0.498843848705291748
0.390235483646392822 -3.69666767120361328 0.638446629047393799
0.942177355289459229 -1.88873028755187988 0.319990724325180054
-2.41947770118713379 -2.38346529006958008 0.477494120597839355
-1.46865439414978027 2.79815340042114258 0.575152754783630371
-1.5125274658203125 0.770399093627929688 0.475499540567398071
-1.09669077396392822 -1.15641570091247559 0.924889504909515381
2.4316563606262207 -2.98385715484619141 0.978232502937316895
-1.4464268684387207 -2.12279057502746582 0.512797713279724121
1.09983336925506592 -1.1483684778213501 0.586675047874450684
0.704487264156341553 2.36958122253417969 0.544152379035949707
-1.09077000617980957 1.59922504425048828 0.485592901706695557
1.63894009590148926 2.83714866638183594 0.745634078979492188
0.560634732246398926 -1.43428325653076172 0.590175509452819824
1.00623631477355957 -4.12497091293334961 0.701201200485229492
-0.698006987571716309 0.872541487216949463 0.681519865989685059
-1.32085132598876953 2.0451819896697998 0.767099082469940186
-2.09895110130310059 -2.07217097282409668 0.497690320014953613
1.54887938499450684 -1.66585862636566162 0.511608004570007324
1.81951344013214111 1.89870333671569824 1.10860419273376465
-0.772000312805175781 -1.78397941589355469 0.435779809951782227
0.809666752815246582 2.86053133010864258 0.531816005706787109
-1.11489188671112061 2.44954562187194824 0.578571915626525879
0.749110639095306396 -4.729522705078125 0.825580418109893799
-1.10585236549377441 -1.66596019268035889 0.645862162113189697
1.07322192192077637 0.975857377052307129 0.53209918737411499
0.950139045715332031 -1.17875933647155762 0.462655544281005859
1.89440524578094482 -3.68725371360778809 0.812072873115539551
0.389165997505187988 -1.03363919258117676 0.316665142774581909
-1.31294095516204834 1.06898999214172363 0.53896796703338623
0.0546092689037322998 2.62038850784301758 0.697894692420959473
0.931474626064300537 -0.223776757717132568 0.635097086429595947
-1.35543859004974365 -2.84107255935668945 0.545277953147888184
-2.52012062072753906 2.7362360954284668 0.663576662540435791
1.52562570571899414 1.94074642658233643 0.733166635036468506
0.329562544822692871 2.54480814933776855 0.54359138011932373
0.324500232934951782 -3.39007163047790527 0.594656765460968018
-1.75984728336334229 4.05672597885131836 0.971944808959960938
-1.22585034370422363 2.8708961009979248 0.592874765396118164
0.748576164245605469 -2.30852246284484863 0.432190865278244019
-1.67671823501586914 -1.85833847522735596 0.556989073753356934
-1.50912654399871826 2.25115156173706055 0.732677042484283447
-0.854035079479217529 4.39309358596801758 0.885078787803649902
0.230914145708084106 2.47578024864196777 0.486857384443283081
-1.3361053466796875 1.00032806396484375 0.459181845188140869
-1.46858406066894531 3.35309982299804688 0.637544155120849609
0.262016713619232178 -2.24773979187011719 0.537875533103942871
0.749012410640716553 -2.82253146171569824 0.629189133644104004
0.528774142265319824 2.5345306396484375 0.628666162490844727
0.315062344074249268 -1.10829567909240723 0.419484168291091919
-0.725455701351165771 -1.40145981311798096 0.69782257080078125
0.642574667930603027 2.23390436172485352 0.510434150695800781
0.1764058917760849 -0.327469199895858765 0.598299026489257812
0.0553844049572944641 3.59720945358276367 0.787049651145935059
1.83614265918731689 -1.31704127788543701 0.828856348991394043
-0.87150108814239502 0.680873870849609375 0.49656793475151062
1.58941447734832764 -0.718115687370300293 0.691259622573852539
-1.55116558074951172 1.4931328296661377 0.574718475341796875
1.12978672981262207 -1.38991725444793701 0.361873716115951538
1.3315589427947998 -1.72102093696594238 0.58482515811920166
-2.3677825927734375 -1.52772688865661621 0.488286405801773071
0.738964498043060303 3.0141596794128418 0.491495281457901001
0.0757238864898681641 1.95976114273071289 0.669035553932189941
0.956789314746856689 -0.751949846744537354 0.440746903419494629
1.34301519393920898 2.08047366142272949 0.600400328636169434
-1.58007848262786865 2.88350296020507812 0.659960508346557617
1.0700150728225708 -1.44761204719543457 0.314436078071594238
-0.757311761379241943 0.879716336727142334 0.520445346832275391
-1.60558485984802246 -1.63927364349365234 0.627515077590942383
1.28562581539154053 2.5187842845916748 0.769766807556152344
-1.49119448661804199 0.816718459129333496 0.484032869338989258
1.38126814365386963 -0.496080577373504639 0.495346695184707642
-1.10684776306152344 -1.34510684013366699 0.623854696750640869
0.979984760284423828 1.062339186668396 0.684966027736663818
-0.415030449628829956 2.85787630081176758 0.542721211910247803
0.850005626678466797 2.82100057601928711 0.501504302024841309
-1.5040891170501709 0.800561428070068359 0.465284883975982666
-1.58287680149078369 2.63975811004638672 0.60053563117980957
-0.953093647956848145 3.95626020431518555 0.655033648014068604
-2.20488309860229492 2.74656248092651367 0.799188375473022461
2.05014991760253906 -2.30158424377441406 0.740577578544616699
1.15378737449645996 2.05102992057800293 0.540135860443115234
-1.55458784103393555 -1.97829174995422363 0.60348963737487793
0.02652016282081604 3.16408967971801758 0.74943852424621582
-1.37006783485412598 1.91251492500305176 0.702158987522125244
0.194557264447212219 -0.653760910034179688 0.347471743822097778
1.59228527545928955 -1.72810053825378418 0.678963840007781982
1.49280726909637451 1.9279402494430542 0.690674185752868652
-1.74932432174682617 -2.12389254570007324 0.537116050720214844
1.68940329551696777 -2.80724883079528809 0.700261354446411133
0.032380521297454834 0.379057079553604126 0.569266676902770996
1.11174297332763672 -2.39855337142944336 0.464636564254760742
-0.702370882034301758 2.07249546051025391 0.622250199317932129
2.09510517120361328 -3.0312952995300293 0.895905792713165283
-1.39164817333221436 -0.828016877174377441 0.544187784194946289
1.0984959602355957 -3.99864435195922852 0.628547251224517822
1.49465405941009521 -2.39195585250854492 0.648135244846343994
-1.40364193916320801 1.86110424995422363 0.578069925308227539
0.535763740539550781 2.75586152076721191 0.62319105863571167
1.60537421703338623 -0.742503046989440918 0.627214491367340088
-0.471159607172012329 -2.14729070663452148 0.54198068380355835
1.07837152481079102 -2.1003870964050293 0.464793413877487183
-2.22236990928649902 0.705247640609741211 0.706409215927124023
-1.55068099498748779 2.92879939079284668 0.57850182056427002
0.81469261646270752 3.33496832847595215 0.475759297609329224
-1.4836655855178833 1.37371146678924561 0.708500444889068604
0.547576785087585449 -1.51092648506164551 0.580795109272003174
0.942745804786682129 -3.27952194213867188 0.661866426467895508
-1.79779696464538574 0.793639004230499268 0.532654047012329102
-0.838541626930236816 2.84483480453491211 0.771999478340148926
0.737045407295227051 2.49544334411621094 0.563234329223632812
0.266478121280670166 -2.32620000839233398 0.611585855484008789
1.31263971328735352 -3.9812319278717041 0.582728385925292969
-1.45446300506591797 2.27875876426696777 0.733490049839019775
0.630788147449493408 2.4350285530090332 0.534868359565734863
0.494436800479888916 2.79086852073669434 0.451216816902160645
0.966371297836303711 -0.742979288101196289 0.489923000335693359
0.958292901515960693 -0.964379668235778809 0.409227311611175537
1.53240084648132324 -4.55305719375610352 0.68855440616607666
-1.796478271484375 1.32105278968811035 0.725121736526489258
-1.20782876014709473 -2.33691215515136719 0.461132019758224487
1.30183684825897217 3.04227375984191895 0.77547156810760498
2.4126746654510498 -2.78115749359130859 0.697532296180725098
0.983291149139404297 -0.759723901748657227 0.46966087818145752
0.998249590396881104 -3.82705855369567871 0.723924994468688965
1.04094111919403076 -0.818244814872741699 0.451783061027526855
-1.27681183815002441 -2.88099837303161621 0.66002577543258667
1.26128721237182617 2.95900774002075195 0.693199634552001953
0.457083165645599365 -0.709714651107788086 0.31545904278755188
0.792790591716766357 2.42141962051391602 0.505111932754516602
-2.65053462982177734 -1.74598884582519531 0.311014473438262939
0.535222411155700684 -4.12221622467041016 0.734319150447845459
-1.78637957572937012 2.83251500129699707 0.595775425434112549
0.761224210262298584 2.99815082550048828 0.43636813759803772
1.8843533992767334 1.79691886901855469 0.937977790832519531
0.689294397830963135 2.62754058837890625 0.510570049285888672
-0.626792728900909424 0.886001646518707275 0.585834980010986328
-1.17605006694793701 3.07928967475891113 0.688772737979888916
0.884069919586181641 -1.62684857845306396 0.527616918087005615
0.150171190500259399 -0.360646367073059082 0.564448058605194092
-1.79385757446289062 0.87387394905090332 0.613438248634338379
1.00808846950531006 1.03883588314056396 0.673907637596130371
-0.741480588912963867 0.825342178344726562 0.584560811519622803
0.653541624546051025 -2.69375848770141602 0.54313957691192627
2.44221854209899902 -3.28936767578125 0.984435319900512695
-1.1232295036315918 3.22927951812744141 0.629660606384277344
0.59211266040802002 -1.6495978832244873 0.434613198041915894
-0.303951680660247803 3.17702221870422363 0.771023154258728027
-1.61745023727416992 4.08597183227539062 0.904784858226776123
0.411285877227783203 2.47035574913024902 0.502494931221008301
0.00657224655151367188 2.14040851593017578 0.555791676044464111
-1.19936323165893555 -2.75178265571594238 0.807090401649475098
0.765054523944854736 -2.36938357353210449 0.447581231594085693
-2.77322053909301758 -1.21106040477752686 0.622200071811676025
-0.0522009134292602539 3.0138237476348877 0.693402349948883057
-1.81943809986114502 2.46828794479370117 0.65805894136428833
-1.44747185707092285 0.777636706829071045 0.460484027862548828
-1.27011775970458984 3.54338693618774414 0.597641825675964355
-0.0147445201873779297 -3.14794301986694336 0.680062413215637207
-1.45811319351196289 1.04551553726196289 0.539637446403503418
-1.36625504493713379 -2.01449394226074219 0.586313724517822266
0.545809626579284668 -2.3228907585144043 0.378157347440719604
-0.819810986518859863 -0.211854666471481323 0.53871619701385498
-1.71306419372558594 -1.83663380146026611 0.659271180629730225
-1.54045391082763672 0.830784618854522705 0.498072057962417603
-0.967311620712280273 4.32647180557250977 0.852965116500854492
-1.8243107795715332 -1.92484200000762939 0.519486427307128906
-1.689910888671875 1.02628564834594727 0.593600094318389893
-2.21692872047424316 2.718902587890625 0.762141168117523193
0.0340102314949035645 2.5060722827911377 0.66016465425491333
-0.393454968929290771 -1.4140019416809082 0.54327237606048584
1.15937590599060059 1.96512949466705322 0.524309277534484863
0.87631535530090332 -3.37949395179748535 0.573111057281494141
-2.22397994995117188 0.696277141571044922 0.715844810009002686
-1.61106109619140625 2.70991039276123047 0.581283211708068848
0.0590865015983581543 1.96624720096588135 0.658762335777282715
-0.00564651191234588623 2.02124786376953125 0.657689034938812256
-0.767244815826416016 0.813010334968566895 0.650097250938415527
1.65038108825683594 -2.22311282157897949 0.692110717296600342
0.798384666442871094 2.64971923828125 0.622726798057556152
-1.72696852684020996 3.3583226203918457 0.657324731349945068
-1.2459869384765625 1.12441205978393555 0.426304519176483154
-1.77436554431915283 -2.04809665679931641 0.490062981843948364
-1.10944986343383789 0.802240729331970215 0.50426793098449707
-0.838713943958282471 -2.29422521591186523 0.51648026704788208
0.921823441982269287 -0.226762875914573669 0.632198929786682129
0.942304790019989014 1.0222315788269043 0.667362093925476074
-1.1730496883392334 4.14588594436645508 0.628400564193725586
0.803750216960906982 -2.31484127044677734 0.47638365626335144
-1.07732927799224854 -1.95286726951599121 0.618400335311889648
1.52794861793518066 -1.06640815734863281 0.698351144790649414
-1.4907982349395752 -2.20702242851257324 0.61541670560836792
-0.107186466455459595 3.53264832496643066 0.843269050121307373
-1.63423395156860352 -1.81217515468597412 0.519568264484405518
1.24122762680053711 -2.08901643753051758 0.633715391159057617
0.70295250415802002 -2.24268579483032227 0.418417453765869141
-1.58101248741149902 -1.78587007522583008 0.739268124103546143
0.760483622550964355 -1.35450160503387451 0.344049453735351562
0.0943765640258789062 1.48268818855285645 0.515633463859558105
0.81301581859588623 -1.45200026035308838 0.26469382643699646
-2.36099028587341309 -1.42453432083129883 0.355908483266830444
1.60445702075958252 -1.41378927230834961 0.558420300483703613
-1.56054258346557617 2.28499889373779297 0.709951877593994141
0.301924228668212891 2.86080193519592285 0.477766066789627075
-1.43906307220458984 2.5976262092590332 0.595414459705352783
0.201984763145446777 2.70221638679504395 0.565692603588104248
0.973490476608276367 -0.783078193664550781 0.490450412034988403
0.982352137565612793 2.65419816970825195 0.524549126625061035
0.0999346822500228882 -0.409384429454803467 0.56510549783706665
-1.29718565940856934 -1.87469768524169922 0.663850188255310059
0.803784847259521484 -2.15150928497314453 0.472515225410461426
-1.53432226181030273 2.81830549240112305 0.608627676963806152
0.108276844024658203 -1.93629121780395508 0.447071611881256104
-1.39677214622497559 0.828488528728485107 0.487915515899658203
-2.275665283203125 2.66921114921569824 0.753711342811584473
-0.97259676456451416 2.56848788261413574 0.543405234813690186
1.87901973724365234 -1.01154518127441406 0.610658705234527588
1.65591871738433838 -2.39763212203979492 0.544945955276489258
-0.577660322189331055 1.20095372200012207 0.542659461498260498
0.801333487033843994 -2.06443047523498535 0.449249714612960815
1.23792791366577148 2.87723588943481445 0.524338126182556152
1.25592803955078125 2.55774521827697754 0.714684963226318359
-1.39428210258483887 2.14230775833129883 0.642523527145385742
1.49476504325866699 -1.78253042697906494 0.498430818319320679
-1.58695089817047119 2.69400787353515625 0.54378199577331543
-0.692049682140350342 0.482268750667572021 0.52794569730758667
0.346274256706237793 3.13009405136108398 0.545655965805053711
-1.56998658180236816 1.28370487689971924 0.723584651947021484
0.242850959300994873 -2.30176520347595215 0.580904245376586914
0.787894606590270996 -0.409051418304443359 0.56999361515045166
1.69728767871856689 3.01906800270080566 0.691823124885559082
0.63796234130859375 -0.993482291698455811 0.476876229047775269
1.48228621482849121 1.94990193843841553 0.699391007423400879
-1.78898739814758301 4.10067510604858398 0.907638311386108398
0.628616631031036377 -1.44375157356262207 0.49727901816368103
-0.783853292465209961 2.87125968933105469 0.758359789848327637
0.721656143665313721 -2.78100109100341797 0.544502735137939453
0.748045086860656738 2.45243692398071289 0.582350969314575195
0.500364184379577637 -4.19991111755371094 0.794633805751800537
-1.55943703651428223 2.72879624366760254 0.581013619899749756
0.692120969295501709 2.22858333587646484 0.490984678268432617
1.77250194549560547 -1.94037830829620361 0.745208382606506348
0.796444177627563477 2.40503787994384766 0.581494927406311035
0.909181475639343262 -3.59019899368286133 0.672181427478790283
-1.0628504753112793 0.400213241577148438 0.635417819023132324
-1.29559004306793213 -2.81194901466369629 0.588141500949859619
-1.21152186393737793 0.767394661903381348 0.555115282535552979
